<svg width="48" height="48" viewBox="0 0 48 48" fill="none" xmlns="http://www.w3.org/2000/svg">
<rect width="48" height="48" rx="24" fill="url(#paint0_linear)"/>
<path fill-rule="evenodd" clip-rule="evenodd" d="M33.944 20.3948C34.0493 20.1395 33.9277 19.8472 33.6724 19.7419C33.4171 19.6367 33.1248 19.7583 33.0195 20.0136L31.1908 24.4487C31.3684 24.4202 31.5558 24.4393 31.7339 24.5137C31.892 24.5799 32.0242 24.6818 32.125 24.8063L33.944 20.3948ZM30.4803 28.7952C30.3136 28.8157 30.1395 28.7945 29.9734 28.7251C29.8033 28.654 29.6632 28.5413 29.56 28.4039L25.304 38.7257C25.1987 38.981 25.3204 39.2733 25.5756 39.3786C25.8309 39.4838 26.1232 39.3622 26.2285 39.1069L30.4803 28.7952Z" fill="#756151"/>
<path fill-rule="evenodd" clip-rule="evenodd" d="M17.911 20.0553C17.9315 19.78 17.7249 19.5401 17.4495 19.5196C17.1741 19.499 16.9343 19.7056 16.9137 19.981L16.6845 23.0564C16.8812 22.7076 17.2777 22.4973 17.6979 22.5576C17.7067 22.5589 17.7154 22.5603 17.7241 22.5617L17.911 20.0553ZM17.2771 28.5592C17.1377 28.6037 16.9863 28.6181 16.8317 28.596C16.6211 28.5658 16.4353 28.472 16.2909 28.3368L15.5051 38.8792C15.4845 39.1546 15.6911 39.3945 15.9665 39.415C16.2419 39.4356 16.4818 39.229 16.5023 38.9536L17.2771 28.5592Z" fill="#756151"/>
<path d="M26.8582 16.3352C26.6137 16.2894 26.1533 16.3406 25.9128 16.4029C24.8793 16.6706 23.9567 16.7892 22.9348 16.4596C22.6374 16.3637 22.3239 16.2861 22.0176 16.3507C21.3352 16.4946 20.8386 16.957 20.4993 17.6192L16.2392 25.7292C15.9385 26.3161 15.8527 27.0661 16.391 27.4637C16.6502 27.6552 16.9497 27.779 17.2494 27.8548C18.0265 28.0514 18.7361 27.5166 19.0953 26.822L20.684 24.0765C20.7901 23.8932 21.08 23.9672 21.0819 24.1774C21.1041 26.6374 21.1897 27.0705 20.31 29.8818C19.6868 31.8731 17.7087 37.5818 17.5586 38.015C17.5519 38.0342 17.5461 38.0516 17.5403 38.0712C16.9577 40.013 19.2957 40.3558 20.671 39.687C21.2385 39.411 21.574 38.8623 21.752 38.2728C22.3297 36.36 23.6782 31.853 24.3355 29.3114C25.8124 30.6678 26.5097 34.8521 26.7296 37.7245C26.7707 38.2613 26.9827 38.8009 27.4577 39.0818C28.415 39.6479 29.2804 39.4367 29.8714 39.0646C30.2984 38.7958 30.4585 38.2899 30.444 37.7975C30.2939 32.6892 28.2524 29.0355 27.2803 27.438V25.6632L29.7692 27.366C30.212 27.7307 30.8243 27.992 31.2987 27.6664C31.4758 27.5448 31.6278 27.39 31.7564 27.221C32.2464 26.5767 31.9385 25.7167 31.3536 25.1512L28.3135 22.2123C27.9247 21.8365 27.7231 21.3156 27.761 20.7846L27.9119 18.6696C27.9119 17.4956 27.8506 16.5213 26.8582 16.3352Z" fill="#756151"/>
<path d="M27.4235 11.5496C27.4235 13.51 26.1876 15.2964 24.1597 15.2964C22.1318 15.2964 20.4878 13.51 20.4878 11.5496C20.4878 9.58921 21.7238 8 23.7517 8C25.7796 8 27.4235 9.58921 27.4235 11.5496Z" fill="#756151"/>
<defs>
<linearGradient id="paint0_linear" x1="24" y1="0" x2="24" y2="48" gradientUnits="userSpaceOnUse">
<stop stop-color="#FFF092"/>
<stop offset="1" stop-color="#FFE4A2"/>
</linearGradient>
</defs>
</svg>
