<svg width="53" height="72" viewBox="0 0 53 72" fill="none" xmlns="http://www.w3.org/2000/svg">
<path fill-rule="evenodd" clip-rule="evenodd" d="M35.1144 27.387L34.8138 31.6015C34.7824 32.0409 34.9473 32.4858 35.2912 32.8182L41.2468 38.5756C42.0378 39.3403 42.7051 40.359 42.9847 41.5116C43.2745 42.7064 43.1444 44.087 42.2378 45.279C41.8851 45.7428 41.4385 46.2071 40.8811 46.5898C39.8146 47.3219 38.6447 47.3307 37.7207 47.0884C36.8691 46.8651 36.1251 46.4128 35.5562 45.9571L34.7003 45.3715C36.8257 49.2239 39.8153 55.9238 40.0741 64.7296C40.1137 66.0764 39.6866 67.9131 38.0186 68.9631C36.3803 69.9945 33.8699 70.6007 31.2065 69.0257C29.4878 68.0094 28.9103 66.1849 28.8041 64.7979C28.594 62.0546 28.1572 58.7136 27.4342 55.7674C27.2271 54.9232 26.9999 54.126 26.7535 53.3942C25.4237 58.1017 23.7858 63.5681 22.9616 66.2976C22.5256 67.7414 21.6087 69.4108 19.8039 70.2885C18.0363 71.1481 15.6585 71.3915 13.7499 70.708C12.7573 70.3525 11.7412 69.6858 11.133 68.5565C10.5118 67.4031 10.4821 66.0767 10.8803 64.7497C10.9018 64.6779 10.9223 64.6162 10.9421 64.5591C11.2423 63.6932 15.1039 52.5476 16.3131 48.6836C16.8993 46.8105 17.2438 45.5443 17.4493 44.5114C16.4534 46.195 14.3834 47.9189 11.7355 47.2489C10.9626 47.0533 10.1214 46.7178 9.35626 46.1527C8.23034 45.321 7.8089 44.1206 7.78011 43.0371C7.75272 42.0058 8.06562 41.0176 8.46716 40.234L8.4718 40.2249L16.8178 24.3364C17.586 22.8416 18.7878 21.5542 20.5209 20.9858C18.1188 19.2429 16.5703 16.3813 16.5703 13.3674C16.5703 11.0366 17.306 8.80795 18.7729 7.13273C20.2636 5.43032 22.4154 4.41357 24.9644 4.41357C29.9773 4.41357 34.1577 8.35904 34.1577 13.3674C34.1577 16.0916 33.0949 18.9104 31.068 20.7289C31.1858 20.7397 31.3036 20.7553 31.4188 20.7769C32.2275 20.9285 32.9608 21.2675 33.5588 21.8266C34.1453 22.3749 34.4942 23.0344 34.7066 23.6647C35.1015 24.8364 35.1144 26.2203 35.1144 27.3157V27.387ZM18.5928 25.258L10.2471 41.146C9.658 42.2957 9.48988 43.765 10.5445 44.5439C11.0522 44.9189 11.639 45.1615 12.2261 45.31C13.7484 45.6952 15.1386 44.6474 15.8423 43.2868L18.9547 37.9082C19.1625 37.5491 19.7304 37.694 19.7341 38.1058C19.7349 38.192 19.7357 38.2769 19.7366 38.3607C19.7395 38.6559 19.7429 38.936 19.746 39.203C19.7478 39.3524 19.7496 39.4979 19.7511 39.6395C19.7546 39.9465 19.7574 40.236 19.7587 40.5121C19.772 43.4253 19.6131 44.8353 18.2218 49.2809C17.001 53.182 13.126 64.3657 12.8318 65.2143C12.8187 65.252 12.8074 65.2861 12.7959 65.3244C11.6545 69.1286 16.235 69.8002 18.9292 68.4899C20.041 67.9492 20.6982 66.8743 21.047 65.7194C22.015 62.5138 24.0882 55.5893 25.4734 50.5374C25.7075 49.6836 25.922 48.8834 26.1081 48.1636C26.6676 48.6775 27.17 49.3985 27.6195 50.268C29.4948 53.895 30.4507 60.1063 30.7982 64.6452C30.8787 65.6969 31.294 66.7539 32.2246 67.3042C34.1001 68.4133 35.7953 67.9994 36.9532 67.2705C37.7896 66.744 38.1033 65.7529 38.075 64.7883C37.7809 54.7808 33.7814 47.623 31.8771 44.4935V41.0166L36.7529 44.3525C37.6205 45.067 38.82 45.5788 39.7492 44.9409C40.0962 44.7027 40.394 44.3995 40.6459 44.0683C41.6058 42.8061 41.0027 41.1213 39.8568 40.0136L33.9011 34.2562C33.1394 33.5199 32.7446 32.4995 32.8188 31.4591L33.1144 27.3157C33.1144 25.0159 32.9943 23.1072 31.0502 22.7426C30.5713 22.6528 29.6692 22.7531 29.198 22.8752C27.1733 23.3998 25.3661 23.632 23.3641 22.9863C22.7815 22.7984 22.1672 22.6464 21.5672 22.7729C20.2303 23.0549 19.2575 23.9608 18.5928 25.258ZM25.7636 20.7075C29.7364 20.7075 32.1577 17.2079 32.1577 13.3674C32.1577 9.5269 28.9371 6.41357 24.9644 6.41357C20.9916 6.41357 18.5703 9.5269 18.5703 13.3674C18.5703 17.2079 21.7909 20.7075 25.7636 20.7075Z" fill="#818C99"/>
<path d="M42.0006 3.31081L44.8676 4.07901C45.2514 2.90056 46.2623 2.34372 47.479 2.66971C48.685 2.99286 49.2934 3.93827 49.0241 4.9433C48.7548 5.94832 48.2033 6.35615 46.6203 6.80508C44.9308 7.27081 44.0938 8.06703 43.7863 9.76483L43.643 10.3841L46.4465 11.1353L46.5968 10.5746C46.8746 9.53782 47.4049 9.12432 49.0302 8.68674C50.7572 8.20835 51.8271 7.30446 52.2551 5.707C52.9015 3.29493 51.3527 1.07707 48.327 0.266346C45.0792 -0.603907 42.7508 0.722485 42.0006 3.31081ZM43.7895 15.8886C44.9744 16.2061 45.8858 15.7247 46.1778 14.635C46.4726 13.5348 45.924 12.6621 44.7392 12.3446C43.5543 12.0271 42.6323 12.5058 42.3375 13.606C42.0455 14.6957 42.6047 15.5712 43.7895 15.8886Z" fill="#818C99"/>
<path d="M1.07887 18.3687L3.05126 17.2299C2.6201 16.3822 2.86649 15.5316 3.70348 15.0483C4.5332 14.5693 5.37628 14.7521 5.77548 15.4436C6.17468 16.135 6.09673 16.6555 5.4814 17.758C4.81738 18.9274 4.79526 19.8136 5.5496 20.9016L5.80788 21.3154L7.7366 20.2018L7.51389 19.8161C7.10209 19.1028 7.16548 18.5907 7.80992 17.4714C8.48738 16.2748 8.57747 15.2039 7.94296 14.1048C6.98488 12.4454 4.94118 12.0824 2.85961 13.2842C0.625204 14.5742 0.0815535 16.5572 1.07887 18.3687ZM8.87406 24.2226C9.68922 23.7519 9.92248 22.9962 9.48967 22.2465C9.05265 21.4896 8.28152 21.3137 7.46637 21.7844C6.65121 22.255 6.41067 23.0149 6.84768 23.7719C7.2805 24.5215 8.0589 24.6932 8.87406 24.2226Z" fill="#818C99"/>
</svg>
