<svg width="48" height="48" viewBox="0 0 48 48" fill="none" xmlns="http://www.w3.org/2000/svg">
<rect width="48" height="48" rx="24" fill="url(#paint0_linear)"/>
<path d="M26.8582 16.3352C26.6137 16.2894 26.1533 16.3406 25.9128 16.4029C24.8793 16.6706 23.9567 16.7892 22.9348 16.4596C22.6374 16.3637 22.3239 16.2861 22.0176 16.3507C21.3352 16.4946 20.8386 16.957 20.4993 17.6192L16.2392 25.7292C15.9385 26.3161 15.8527 27.0661 16.391 27.4637C16.6502 27.6552 16.9497 27.779 17.2494 27.8548C18.0265 28.0514 18.7361 27.5166 19.0953 26.822L20.684 24.0765C20.7901 23.8932 21.08 23.9672 21.0819 24.1774C21.1041 26.6374 21.1897 27.0705 20.31 29.8818C19.6868 31.8731 17.7087 37.5818 17.5586 38.015C17.5519 38.0342 17.5461 38.0516 17.5403 38.0712C16.9577 40.013 19.2957 40.3558 20.671 39.687C21.2385 39.411 21.574 38.8623 21.752 38.2728C22.3297 36.36 23.6782 31.853 24.3355 29.3114C25.8124 30.6678 26.5097 34.8521 26.7296 37.7245C26.7707 38.2613 26.9827 38.8009 27.4577 39.0818C28.415 39.6479 29.2804 39.4367 29.8714 39.0646C30.2984 38.7958 30.4585 38.2899 30.444 37.7975C30.2939 32.6892 28.2524 29.0355 27.2803 27.438V25.6632L29.7692 27.366C30.212 27.7307 30.8243 27.992 31.2987 27.6664C31.4758 27.5448 31.6278 27.39 31.7564 27.221C32.2464 26.5767 31.9385 25.7167 31.3536 25.1512L28.3135 22.2123C27.9247 21.8365 27.7231 21.3156 27.761 20.7846L27.9119 18.6696C27.9119 17.4956 27.8506 16.5213 26.8582 16.3352Z" fill="#555B6C"/>
<path d="M27.4235 11.5496C27.4235 13.51 26.1876 15.2964 24.1597 15.2964C22.1318 15.2964 20.4878 13.51 20.4878 11.5496C20.4878 9.58921 21.7238 8 23.7517 8C25.7796 8 27.4235 9.58921 27.4235 11.5496Z" fill="#555B6C"/>
<path d="M33.3389 11.4411L35.3524 11.9806C35.6219 11.153 36.3319 10.7619 37.1863 10.9908C38.0333 11.2178 38.4606 11.8817 38.2715 12.5876C38.0824 13.2934 37.6951 13.5798 36.5833 13.8951C35.3967 14.2222 34.8089 14.7814 34.593 15.9738L34.4924 16.4087L36.4613 16.9363L36.5668 16.5425C36.7619 15.8143 37.1343 15.5239 38.2758 15.2166C39.4887 14.8806 40.2401 14.2458 40.5407 13.1239C40.9946 11.4299 39.9069 9.87231 37.7819 9.30293C35.501 8.69175 33.8658 9.62328 33.3389 11.4411ZM34.5952 20.2746C35.4274 20.4975 36.0675 20.1594 36.2725 19.3941C36.4796 18.6214 36.0943 18.0085 35.2622 17.7856C34.43 17.5626 33.7825 17.8987 33.5755 18.6715C33.3704 19.4367 33.7631 20.0516 34.5952 20.2746Z" fill="#555B6C"/>
<path d="M8.60384 21.8444L9.98906 21.0446C9.68625 20.4493 9.85929 19.8519 10.4471 19.5125C11.0298 19.1761 11.6219 19.3045 11.9023 19.7901C12.1827 20.2757 12.1279 20.6412 11.6958 21.4155C11.2294 22.2368 11.2139 22.8591 11.7437 23.6233L11.925 23.9138L13.2796 23.1318L13.1232 22.8609C12.834 22.36 12.8785 22.0003 13.3311 21.2142C13.8069 20.3738 13.8701 19.6217 13.4245 18.8499C12.7517 17.6844 11.3164 17.4295 9.85446 18.2735C8.28522 19.1795 7.90341 20.5722 8.60384 21.8444ZM14.0784 25.9556C14.6509 25.6251 14.8148 25.0943 14.5108 24.5678C14.2039 24.0362 13.6623 23.9127 13.0898 24.2432C12.5173 24.5738 12.3484 25.1075 12.6553 25.6391C12.9593 26.1656 13.506 26.2861 14.0784 25.9556Z" fill="#555B6C"/>
<defs>
<linearGradient id="paint0_linear" x1="24" y1="0" x2="24" y2="48" gradientUnits="userSpaceOnUse">
<stop stop-color="#D3F9FE"/>
<stop offset="1" stop-color="#A8E6FF"/>
</linearGradient>
</defs>
</svg>
